
<svg xmlns="http://www.w3.org/2000/svg" version="1.1" xmlns:xlink="http://www.w3.org/1999/xlink" style="display: none;">

  <symbol id="icon-paw" viewBox="0 0 512 512">
    <title>Pawprint icon</title>
    <desc>Paw</desc>
    <path d="M316.8-0.1c-21.6,37.8-27.3,83.6,6.7,79.8C351.1,76.6,342.3,33.4,316.8-0.1L316.8-0.1z M176.6,4.5 c-19.6,38.8-22.9,84.7,10.9,79.4C214.9,79.5,203.8,36.8,176.6,4.5L176.6,4.5z M431.4,90.9c-25.2,34.8-35.2,79.5-0.9,79.9 C458.2,171.2,453.5,127.3,431.4,90.9L431.4,90.9z M66.6,94.6c-19.2,37.7-20.2,81.6,7.6,79.3C108.4,171,94.7,127.4,66.6,94.6z M316.1,104.2c-63.8,2.6-57.7,136.2,3,133.7C378.8,235.5,378.9,101.7,316.1,104.2L316.1,104.2z M193.3,106.3c-0.9,0-1.9,0.1-2.9,0.2 c-63.6,5.5-50.4,138.6,10.1,133.4C259.1,234.9,253.1,105.2,193.3,106.3z M98.3,202c-1.8,0-3.7,0.1-5.7,0.3 c-63.2,8-43.8,140.5,16.3,132.9C166.2,328,155.5,202.7,98.3,202L98.3,202z M417.8,203.6c-63.8-1.2-67.1,132.5-6.3,133.6 C471.2,338.3,480.6,204.7,417.8,203.6L417.8,203.6z M251.5,280.6c-65.4,1.4-14.9,69-130.5,108.3c-89.6,30.4-35.3,122.2,41.4,122.5 c42.1,0.2,57.1-33,91.6-32.9c39.1,0.2,42.3,30,99.5,30.2c73.1,0.3,115.5-92,31.8-123.3c-106.5-39.9-61.9-104.1-130.5-104.8 C253.6,280.6,252.5,280.6,251.5,280.6L251.5,280.6z"/>
  </symbol>

  <symbol id="icon-moon" viewBox="0 0 512 512">
    <title>Moon icon</title>
    <desc>Moon</desc>
    <path d="M256,0.1C114.8,0.1,0.1,114.8,0.1,256s114.7,255.9,256,255.9C397.3,511.9,512,397.2,512,256 C512,114.8,397.3,0.1,256,0.1L256,0.1z M230.3,56c43.5,0,83.7,13.9,116.5,37.4c-6-0.7-12.1-1-18.3-1c-90.4,0-163.6,73.3-163.6,163.7 c0,90.4,73.3,163.6,163.6,163.6c6.2,0,12.3-0.3,18.3-1c-32.8,23.5-73,37.4-116.5,37.4c-110.6,0-200-89.4-200-200 C30.3,145.4,119.8,56,230.3,56L230.3,56z"/>
  </symbol>

  <symbol id="icon-swim" viewBox="0 0 512 512">
    <title>Fish icon</title>
    <desc>Salmon</desc>
    <path d="M236.2,9.5c-0.5,0-0.9,0.3-1.4,0.3l-2.4,1.2L83.7,72.9C74.5,77,66.2,82,58.3,87.7c0,0-0.3,0-0.3,0.5  c-3.8,3.3-7.4,7.1-10.7,11.2c-3.8,5.4-7.1,11.6-9.7,18.1c-1.6,6.2-2.4,12.1-2.8,18.3v2.1c0,5,0.7,9.5,2.4,14.2 c0.3-5,1.7-10.4,3.8-15c2.4-5.7,6.6-10.7,11.9-14.5c3.3-2.1,7.1-4.1,10.9-5.4c5-1.2,9.8-2.1,15.4-2.9c8.3-0.9,16.6-1.2,24-1.6 c9.8,0,19.5,0.3,29.9,0.7c12.4,0.5,24.3,2.1,35.6,4.1c8.8,1.4,17.1,2.9,26.1,4.7l-4.1-6.2l-4.5-9.5c-1.2-3.8-2.1-7.9-2.1-11.7v-1.2 c0.3-4.1,1.2-8.3,3.3-12.4l9.1-12.4l41.4-53.8c0.9-0.3,0.9-1.2,0.9-2.1c0-0.9,0-1.7-0.9-2.4C237.4,9.9,236.6,9.5,236.2,9.5 L236.2,9.5z M14.7,136.9c-2.1,3.6-4.1,7.4-5.8,11c-2.4,6.2-4.2,12.4-5.4,19.2c-0.3,3.3-0.8,7.1-0.8,10.3c0,2.9,0.5,5.4,0.5,7.9 c1.2,7.4,2.4,14.5,4.1,21.4c4.5,15.4,11.6,29.5,21.4,41.4c5.5,6.7,11.2,12.9,17.1,18.3c5.4,4.7,11.2,9.5,17.4,14.5 c7.1,5.4,14.5,10,21,13.6c10,5.9,20.4,11.2,30.8,16.6c37.6,20,77.8,34,118.5,41c26.9,3.8,53.9,7.1,81.5,9.5c0,5.5,0.3,11.2,1.2,16.6 c0.9,6.7,2.4,13.8,5,20c2.4,6.9,5.4,13.6,9.5,19.8c4.5,6.6,9.8,12.5,15.7,18.4c6.6,5.7,13.7,10.7,21.9,14.5c6.2,2.8,12.9,4.5,20,5.3 c2.1,0,4.1,0.4,6.2,0.4c1.2,0,2.4-0.4,3.6-0.4l111.2-7.9h0.4c0.3,0,1.2-0.3,1.2-1.2c0-0.9-0.9-1.2-2.1-1.7 c-4.1-1.2-8.6-2.8-13.3-4.5c-4.8-1.7-10.4-3.7-15.2-4.9c-7.1-2.4-14.5-5-22.1-6.6c-7.4-1.7-14.8-3.3-22.8-4.6 c-5-0.3-10.4-1.2-15.4-2.4c-0.7-0.3-1.6-1.3-1.6-2.5c0,0,0-0.5,0.4-0.8c0-0.5,0.5-0.9,0.5-0.9c0-0.3,0.3-0.3,0.3-0.8 c1.2-0.9,3-1.7,4.2-2.4c2.9-1.7,5.9-3,8.6-4.2c7.1-3.5,14.5-6.2,22.1-9.7c3.3-1.2,6.5-2.4,9.8-3.6c4.7-1.7,9.7-2.9,16.6-5 c1.4-0.3,2.6-0.9,3.4-1.2c2.8-0.9,5.8-1.8,8.7-2.6c-5.9-9-13.3-17.7-21-25.2l-15.4-14.8c-5.4-4.7-10.3-8.8-15-12.4 c-7.8-5.5-15.3-10.9-22.2-15.4c-13.8-9.1-27.8-17.1-42.3-24.2c-7.4-3.6-15-6.9-26.2-11c-10.7-3.8-21-7.6-19-6.7 c-9.5-2.9-19.5-5.7-29-8.3L272,187.5c-7.9,4.1-16.2,8.3-23.3,11.5c-6.2,2.9-12.4,4.5-19,5.4c-7.9,1.7-15.7,1.7-23.7,0.8L105.4,197 l27.3,32.6c0.9,1.4,2.1,2.9,3.3,4.6c0.9,0.9,0.8,1.5,0.8,2.9c-0.3,1.2-1.2,2.1-2.9,2.1c-4.8,0.3-9.8,0-14.8-0.5 c-7.1-0.9-14.2-2-20.7-4.1c-5.9-1.2-11.2-3.3-16.2-5.7c-6.6-2.6-13.3-5.9-19-9.7c-5.4-3.3-10.8-6.9-15.7-11.1 c-5.5-4.1-10.4-8.8-15.1-13.8c-2.9-3.3-5.8-7.4-8.2-11.5c-2.9-5.7-5.4-11.6-7.1-17.8c-1.2-6.7-2.4-13.3-2.9-18.7 C14.7,143.4,14.7,140.5,14.7,136.9L14.7,136.9z M3.3,247.3l1.2,10c5,32.3,17.1,63.3,34.9,91.1c12.1,19.2,27.4,35.2,45.2,47.6 l9.5,6.7l19,11.9c41.6,24.5,87.5,40.7,135.7,47.8l33.5,2.8l34.2,2.1l36.1-0.3c-9.5-5.9-18.1-12.8-25.7-20.7l-7.4-8.6 c-6.2-7.9-11.2-16.2-14.5-25.4c-1.6-5.9-2.9-11.2-4.1-16.9l-2.1-13.3l-35.9-3.8l-28.1-3.6l-19-2.9c-10.9-2.1-21.6-5-32.4-8.3 l-34.7-12.4L121.5,339l-27.4-13.6l-25.7-14.2l-20.2-13.6l-25.7-24L3.3,247.3L3.3,247.3z M426.7,346.7c7.8,0,14.2,6.6,14.2,14.5 c0,8.1-6.4,14.5-14.2,14.5s-14.2-6.4-14.2-14.5C412.5,353.3,418.9,346.7,426.7,346.7L426.7,346.7z M69.1,439 c15.4,10.4,29.9,21.6,43.1,33.7c11.6,9.8,21.9,20.7,32.3,31.2c2.9,0,5.4-0.9,7.4-1.6c9.1-4.1,17.4-8.6,25.7-13.6 c7.9-4.5,14.8-9.8,20.7-16c-4.5-1.7-9.1-3.3-13.6-4.7c-11.2-2.8-21.9-6.6-32.4-11.2c-7.8-3.3-15.2-6.9-22.3-11 c-0.9,0.3-2.1,0.3-2.9,0.3c-5,0-10-0.3-14.8-1.2C97.8,443.6,83.3,441.6,69.1,439L69.1,439z"/>
  </symbol>

   <symbol id="icon-climb" viewBox="0 0 512 512">
    <title>Spider icon</title>
    <desc>Spider</desc>
    <path d="M256.9,15.5c-54.1,0-98,93.5-98,146.8c0,31,14.8,58.6,37.9,76.3c5.9-6.9,12.2-12.8,19-17.7l0,0 c12.8-9.1,26.8-14.1,41.1-14.1c14.3,0,28.3,4.9,41.1,14.1c6.8,4.8,13.1,10.8,19,17.7c23-17.7,37.9-45.3,37.9-76.3 C354.9,108.9,311,15.5,256.9,15.5L256.9,15.5z M493.8,29.7l-73.5,173.4L330.2,257c3.1,5.2,6,10.6,8.6,16.3l96-57.5l58.9-139 L493.8,29.7L493.8,29.7z M20.1,29.7v47l58.9,139l96.1,57.3c2.6-5.6,5.5-11,8.6-16.2l-90.2-53.7L20.1,29.7L20.1,29.7z M1.7,33.3 L1.7,33.3v0.1V33.3L1.7,33.3z M512.2,33.3v0.1V33.3L512.2,33.3L512.2,33.3z M256.9,222.8c-10.7,0-21.3,3.5-31.8,11.1l0,0 c-9.4,6.7-18.2,16.3-26.1,28.6c-14.9,23.5-24,54.4-24,81.5c0,26.6,8.5,47.2,24,61l0,0c14,12.4,33.9,19.3,58,19.3 c24.1,0,43.9-6.9,58-19.3c15.5-13.8,24-34.4,24-61c0-27.1-9.1-58-24-81.5l0,0c-7.8-12.3-16.6-21.9-26.1-28.6 C278.2,226.4,267.7,222.8,256.9,222.8L256.9,222.8z M20.1,233.5v23.4l64.4,51.1l76.6,10.6c1-6,2.3-12,3.9-18l-73-10.2L20.1,233.5 L20.1,233.5z M493.8,233.5l-71.9,57.1l-73,10.2c1.6,6,2.9,12,3.9,18l76.6-10.7l64.4-51.1L493.8,233.5L493.8,233.5z M354.7,350.1 c-0.3,6.3-1,12.4-2.3,18.3l69.1,15.1l72.2,58.1v-23.6l-64.1-51.6L354.7,350.1L354.7,350.1z M159.1,350.2l-74.9,16.3l-64.1,51.6v23.6 l72.2-58.1l69.1-15C160.2,362.7,159.4,356.5,159.1,350.2L159.1,350.2z M203.5,356.8c5.6,0,10.1,4.5,10.1,10.1 c0,5.5-4.5,10.1-10.1,10.1c-5.6,0-10.1-4.5-10.1-10.1C193.4,361.3,197.9,356.8,203.5,356.8L203.5,356.8z M310.6,356.8 c5.6,0,10.1,4.5,10.1,10.1c0,5.5-4.5,10.1-10.1,10.1c-5.6,0-10.1-4.5-10.1-10.1C300.5,361.3,305,356.8,310.6,356.8L310.6,356.8z M235.8,368.1c9.3,0,16.9,7.5,16.9,16.8c0,9.3-7.6,16.8-16.9,16.8c-9.3,0-16.9-7.5-16.9-16.8C218.9,375.7,226.4,368.1,235.8,368.1 L235.8,368.1z M278.3,368.1c9.3,0,16.9,7.5,16.9,16.8c0,9.3-7.6,16.8-16.9,16.8c-9.3,0-16.9-7.5-16.9-16.8 C261.4,375.7,269,368.1,278.3,368.1L278.3,368.1z M342.7,395.4c-3,5.5-6.6,10.5-10.7,15.1l51.1,27.1l27.5,51h20.9L396.6,424 L342.7,395.4L342.7,395.4z M171.2,395.5l-54,28.5l-34.8,64.6h20.9l27.5-51l51.2-27.1C177.8,406,174.2,400.9,171.2,395.5L171.2,395.5 z M201.4,420.8c-4.5,0.1-9.6,2.3-14.9,7.7c-3.8,7.8-5.9,16.6-5.9,25.7c0,16.5,6.8,31.4,17.8,42.5c0-1.3-0.1-2.7-0.1-4 c0-20.9,7.7-39.4,19.7-50.8C218,431.1,211.3,420.7,201.4,420.8L201.4,420.8z M312.5,420.8c-9.8-0.1-16.6,10.3-16.6,21.1 c11.9,11.4,19.7,30,19.7,50.8c0,1.3,0,2.7-0.1,4c11-11.1,17.8-26.1,17.8-42.5c0-9.2-2.1-17.9-5.9-25.7 C322,423.1,316.9,420.9,312.5,420.8L312.5,420.8z M242.2,434.9c-1.6,0-3.4,0.8-5.4,2.8c-1.4,2.8-2.1,5.9-2.1,9.2 c0,5.9,2.4,11.3,6.4,15.3c0-0.5,0-1,0-1.4c0-7.5,2.8-14.1,7-18.2C248.2,438.6,245.8,434.9,242.2,434.9L242.2,434.9z M271.9,434.9 c-3.5,0-5.9,3.7-5.9,7.6c4.3,4.1,7,10.7,7,18.2c0,0.5,0,1,0,1.4c4-4,6.4-9.4,6.4-15.3c0-3.3-0.8-6.4-2.1-9.2 C275.3,435.8,273.5,435,271.9,434.9L271.9,434.9z"/>
  </symbol>

   <symbol id="icon-burrow" viewBox="0 0 512 512">
    <title>Burrow icon</title>
    <desc>Tools</desc>
    <path d="M106.6,0.5l-7.1,7.1L10.4,96.7l-6.1,7.5c4.2,4.8,8.7,9.3,13.2,13.8l0.2-0.2c17.9,15.7,38.2,25.9,57.8,29.8 c16.5,3.3,33.1,1.9,46.7-5.1c31.5,31.2,62.7,62.8,93.8,94.8l24-24l-94.4-94.4c6.7-13.5,8-29.8,4.8-46.1 c-4.4-22.4-17.1-45.6-36.7-65.2L106.6,0.5L106.6,0.5z M241.4,10.7c-10,0.1-19.9,1-29.6,2.9c126.3,76,220.6,177.6,295,295.1 c3-63.8-22.8-129.6-63.9-183c-16.2,5.9-36.2,0.7-50-13.2c-13.8-13.8-19.1-33.8-13.2-50C337.3,30.3,288.8,10.5,241.4,10.7L241.4,10.7 z M118.5,46.1c6.1,10.3,10.3,20.8,12.2,30.6c3.5,17.8,0.2,32.5-9.3,41.9s-24.1,12.8-41.9,9.3c-9.8-1.9-20.3-6-30.6-12.2L118.5,46.1 L118.5,46.1z M415.4,58.2c-0.5,0-0.9,0-1.4,0.1c-4.5,0.4-8.5,2.1-11.4,5c-7.7,7.7-7.1,23.3,4.5,35c11.7,11.7,27.3,12.3,35,4.6 c7.7-7.7,7.1-23.3-4.6-35C430.7,61,422.5,58,415.4,58.2L415.4,58.2z M341.8,140L4.1,477.9c4.5,12.5,11.6,22,26.4,26.8l338-338.1 C360.3,157.3,351.4,148.5,341.8,140L341.8,140z M295.2,268.4l-24.9,24.9c35.1,36.7,70.1,73.6,105.1,110.5 c-16.8,15.7-34.2,29.3-50.2,38.9c60.3,60.3,134.7,84.2,174.7,58.7c24.5-40.2,1.2-114.8-58.7-174.7c-10.4,16.1-23.7,33-38.4,49.2 L295.2,268.4L295.2,268.4z"/>
  </symbol>

  <symbol id="icon-fly" viewBox="0 0 512 512">
    <title>Fly icon</title>
    <desc>Bat Wing</desc>
    <path d="M1.4,0c41.4,47.7,42.2,97.7,17.3,143.4c82-35.8,171.5-49.2,258.9-49.2c3.2,0,6.3,0,9.5,0 c49.8,0.5,98.8,5.3,145.2,12.6C296.9,7,144.2,1.6,1.4,0L1.4,0z M274,114.6c-82.1,0.4-165.6,12.9-241.7,45 c42.8,27.2,48.7,92.1,33.4,141.1c88.7-89.3,231.7-149.2,354.1-175.3C373,118.5,323.8,114.4,274,114.6L274,114.6z M425,145.1 c-120.1,25.7-261.9,86.1-346.4,171.6c64.5-6.1,120.7,43.4,104.3,106.1C254.2,306.7,330.2,222.2,425,145.1L425,145.1z M437,161.4 c-91.9,74.7-165.1,155.9-234.3,267.7c93.5-51.9,206.3-15.6,205.3,82.5h97L368.7,334.8l-3.6-4.7l2.3-5.5L437,161.4L437,161.4z M448.2,186.8l-59.9,140.4l123.4,160V450C447.2,349.4,438,264.9,448.2,186.8L448.2,186.8z"/>
  </symbol>

</svg>