<?xml version="1.0" standalone="no"?>
<!DOCTYPE svg PUBLIC "-//W3C//DTD SVG 20010904//EN"
 "http://www.w3.org/TR/2001/REC-SVG-20010904/DTD/svg10.dtd">
<svg version="1.0" xmlns="http://www.w3.org/2000/svg"
 width="512.000000pt" height="512.000000pt" viewBox="0 0 512.000000 512.000000"
 preserveAspectRatio="xMidYMid meet">
<metadata>
Created by potrace 1.11, written by Peter Selinger 2001-2013
</metadata>
<g transform="translate(0.000000,512.000000) scale(0.100000,-0.100000)"
fill="#000000" stroke="none">
<path d="M1010 4773 c-14 -2 -52 -13 -85 -25 -358 -125 -462 -599 -192 -871
199 -201 500 -201 700 -1 55 55 92 119 122 207 110 328 -119 679 -452 691 -37
1 -79 0 -93 -1z"/>
<path d="M4125 4638 c-44 -9 -125 -38 -125 -45 0 -2 28 -29 62 -61 53 -50 159
-172 224 -259 70 -96 164 -278 229 -446 l37 -98 34 38 c149 170 169 435 48
635 -104 170 -327 274 -509 236z"/>
<path d="M2738 3454 c-101 -23 -244 -99 -374 -198 l-41 -31 33 -85 c53 -139
78 -290 83 -506 1 -11 18 -39 39 -61 172 -183 309 -431 388 -703 15 -52 31
-99 34 -103 4 -5 28 38 52 95 132 300 202 632 202 953 1 214 -20 332 -79 461
-72 157 -180 214 -337 178z"/>
<path d="M3525 3359 c-96 -28 -235 -94 -235 -113 0 -8 4 -26 9 -39 6 -14 13
-44 16 -68 4 -24 8 -46 10 -49 8 -15 18 -162 19 -292 l1 -147 40 -43 c216
-233 363 -509 459 -859 l32 -118 26 42 c109 175 196 437 224 677 4 36 9 74 10
85 7 51 4 288 -5 357 -37 279 -149 484 -303 553 -83 38 -200 43 -303 14z"/>
<path d="M1852 3269 c-28 -10 -66 -26 -84 -36 -77 -42 -203 -145 -276 -225
l-22 -25 20 -45 c19 -43 41 -120 56 -198 4 -19 8 -103 8 -186 1 -149 1 -151
30 -195 151 -228 310 -547 368 -738 5 -19 100 157 146 274 51 127 75 206 100
325 39 182 46 250 46 425 0 171 -7 239 -35 344 -36 134 -102 240 -172 277 -44
23 -122 24 -185 3z"/>
<path d="M4232 3192 c-16 -2 -20 -7 -14 -15 15 -18 59 -154 76 -232 21 -97 25
-133 32 -269 l7 -118 54 -77 c31 -42 58 -83 61 -91 3 -8 18 -36 33 -61 108
-185 196 -531 206 -814 3 -82 7 -152 9 -154 13 -14 126 201 158 300 115 352
86 777 -76 1104 -59 121 -63 127 -111 193 -116 157 -300 257 -435 234z"/>
<path d="M1085 2998 c-56 -21 -140 -82 -217 -160 -102 -102 -115 -123 -96
-146 76 -88 239 -367 303 -517 22 -52 76 -205 81 -229 6 -31 12 -30 37 11 38
61 75 146 108 246 46 139 60 226 63 372 4 192 -43 339 -128 406 -33 26 -106
34 -151 17z"/>
<path d="M372 2622 c-188 -53 -264 -319 -171 -605 l32 -98 25 23 c56 50 126
147 164 228 51 110 87 280 84 405 l-1 59 -40 2 c-22 0 -64 -6 -93 -14z"/>
<path d="M686 2454 c-3 -16 -8 -45 -10 -64 -22 -189 -140 -438 -262 -555 l-22
-20 39 -89 c83 -193 219 -370 320 -416 126 -57 217 9 253 181 12 61 14 211 2
274 -12 66 -48 194 -72 260 -37 97 -131 285 -191 379 -49 76 -51 78 -57 50z"/>
<path d="M3310 2384 c0 -9 -11 -67 -25 -128 -64 -287 -177 -557 -306 -732 -21
-29 -36 -54 -33 -57 10 -9 11 -311 2 -402 -13 -136 -40 -253 -82 -354 -14 -35
-25 -66 -23 -67 2 -2 41 -25 88 -52 340 -195 585 -161 711 98 39 79 71 195 83
295 8 63 8 315 1 350 -2 11 -7 47 -10 80 -4 33 -9 67 -11 75 -2 8 -7 29 -10
45 -28 164 -104 391 -184 555 -48 97 -47 95 -123 211 -61 92 -78 111 -78 83z"/>
<path d="M2416 2329 c-3 -13 -8 -42 -11 -64 -13 -83 -66 -278 -101 -372 -62
-168 -152 -334 -267 -493 -23 -31 -25 -40 -17 -80 22 -116 2 -349 -37 -423
l-15 -30 75 -72 c202 -196 378 -271 494 -212 41 22 107 96 137 156 31 61 71
195 82 276 17 131 9 418 -16 545 -6 30 -13 66 -15 80 -11 58 -16 78 -31 130
-55 188 -142 385 -227 514 -41 61 -47 66 -51 45z"/>
<path d="M4307 2230 c-3 -8 -13 -53 -22 -100 -17 -84 -48 -196 -64 -235 -5
-11 -19 -47 -32 -80 -48 -128 -145 -287 -234 -382 -43 -46 -44 -50 -40 -98 17
-174 3 -362 -41 -565 -7 -34 -53 -146 -80 -197 -26 -50 -25 -51 66 -83 88 -30
185 -30 264 0 75 29 176 127 229 224 63 117 117 290 132 426 3 30 8 73 11 95
8 52 7 255 0 320 -3 28 -8 70 -10 95 -13 119 -43 256 -87 385 -40 118 -85 214
-92 195z"/>
<path d="M1466 2092 c-23 -70 -74 -174 -130 -262 -42 -67 -51 -79 -99 -136
-25 -29 -29 -44 -33 -105 -6 -126 -27 -210 -72 -296 l-22 -41 58 -81 c148
-207 316 -337 451 -348 69 -5 113 16 153 73 146 209 60 666 -214 1147 -34 59
-64 107 -67 107 -3 0 -14 -26 -25 -58z"/>
</g>
</svg>
